<mxfile host="app.diagrams.net" modified="2023-07-28T18:36:03.085Z" agent="Mozilla/5.0 (Windows NT 10.0; Win64; x64) AppleWebKit/537.36 (KHTML, like Gecko) Chrome/115.0.0.0 Safari/537.36 Edg/115.0.1901.183" etag="9vGQI19cUEXewT3IsLaO" version="21.6.6" type="device">
  <diagram name="Page-1" id="YgEF8Rc6YDN5Ng1QnEPJ">
    <mxGraphModel dx="1266" dy="746" grid="1" gridSize="10" guides="1" tooltips="1" connect="1" arrows="1" fold="1" page="1" pageScale="1" pageWidth="850" pageHeight="1100" math="0" shadow="0">
      <root>
        <mxCell id="0" />
        <mxCell id="1" parent="0" />
        <mxCell id="dZJAuWM4ClLpMtlekzl2-5" style="edgeStyle=orthogonalEdgeStyle;rounded=0;orthogonalLoop=1;jettySize=auto;html=1;exitX=1;exitY=0.75;exitDx=0;exitDy=0;entryX=0;entryY=0.25;entryDx=0;entryDy=0;" parent="1" source="dZJAuWM4ClLpMtlekzl2-1" target="dZJAuWM4ClLpMtlekzl2-4" edge="1">
          <mxGeometry relative="1" as="geometry" />
        </mxCell>
        <mxCell id="dZJAuWM4ClLpMtlekzl2-9" value="Consultar los planificaciones y&amp;nbsp;&lt;br style=&quot;font-size: 11px;&quot;&gt;retroalimentaciones de entrenamientos&lt;br style=&quot;font-size: 11px;&quot;&gt;con inteligencia artificial" style="edgeLabel;html=1;align=center;verticalAlign=middle;resizable=0;points=[];fontSize=11;" parent="dZJAuWM4ClLpMtlekzl2-5" vertex="1" connectable="0">
          <mxGeometry x="-0.4615" y="1" relative="1" as="geometry">
            <mxPoint x="36" y="30" as="offset" />
          </mxGeometry>
        </mxCell>
        <mxCell id="qzlctMb44i1yB61l0kc5-8" style="edgeStyle=orthogonalEdgeStyle;rounded=0;orthogonalLoop=1;jettySize=auto;html=1;exitX=0.5;exitY=1;exitDx=0;exitDy=0;entryX=0.25;entryY=0;entryDx=0;entryDy=0;" parent="1" source="dZJAuWM4ClLpMtlekzl2-1" target="qzlctMb44i1yB61l0kc5-6" edge="1">
          <mxGeometry relative="1" as="geometry">
            <Array as="points">
              <mxPoint x="50" y="210" />
              <mxPoint x="108" y="210" />
              <mxPoint x="108" y="270" />
            </Array>
          </mxGeometry>
        </mxCell>
        <mxCell id="qzlctMb44i1yB61l0kc5-9" value="subir video de &lt;br&gt;entrenamiento para an치lisis" style="edgeLabel;html=1;align=center;verticalAlign=middle;resizable=0;points=[];" parent="qzlctMb44i1yB61l0kc5-8" vertex="1" connectable="0">
          <mxGeometry x="-0.1063" y="-2" relative="1" as="geometry">
            <mxPoint x="32" y="-32" as="offset" />
          </mxGeometry>
        </mxCell>
        <mxCell id="dZJAuWM4ClLpMtlekzl2-1" value="&lt;font style=&quot;font-size: 11px;&quot;&gt;Esgrimista&lt;/font&gt;&lt;br&gt;&lt;font style=&quot;font-size: 9px;&quot;&gt;[persona]&lt;/font&gt;" style="shape=actor;whiteSpace=wrap;html=1;fontSize=9;spacingTop=27;" parent="1" vertex="1">
          <mxGeometry x="20" y="5" width="60" height="70" as="geometry" />
        </mxCell>
        <mxCell id="dZJAuWM4ClLpMtlekzl2-7" style="edgeStyle=orthogonalEdgeStyle;rounded=0;orthogonalLoop=1;jettySize=auto;html=1;exitX=0.5;exitY=0;exitDx=0;exitDy=0;entryX=0.5;entryY=1;entryDx=0;entryDy=0;" parent="1" source="dZJAuWM4ClLpMtlekzl2-3" target="dZJAuWM4ClLpMtlekzl2-4" edge="1">
          <mxGeometry relative="1" as="geometry">
            <mxPoint x="535" y="366.25" as="sourcePoint" />
            <mxPoint x="500" y="180" as="targetPoint" />
          </mxGeometry>
        </mxCell>
        <mxCell id="dZJAuWM4ClLpMtlekzl2-8" value="Gestionar planes de entrenamiento, &lt;br style=&quot;font-size: 11px;&quot;&gt;dar retroalimentaciones de los&amp;nbsp;&lt;br style=&quot;font-size: 11px;&quot;&gt;entrenamientos con inteligencia artificial" style="edgeLabel;html=1;align=center;verticalAlign=middle;resizable=0;points=[];fontSize=11;" parent="dZJAuWM4ClLpMtlekzl2-7" vertex="1" connectable="0">
          <mxGeometry x="-0.2667" relative="1" as="geometry">
            <mxPoint y="-9" as="offset" />
          </mxGeometry>
        </mxCell>
        <mxCell id="qzlctMb44i1yB61l0kc5-12" style="edgeStyle=orthogonalEdgeStyle;rounded=0;orthogonalLoop=1;jettySize=auto;html=1;exitX=1;exitY=0.75;exitDx=0;exitDy=0;" parent="1" source="dZJAuWM4ClLpMtlekzl2-3" target="qzlctMb44i1yB61l0kc5-7" edge="1">
          <mxGeometry relative="1" as="geometry" />
        </mxCell>
        <mxCell id="qzlctMb44i1yB61l0kc5-13" value="registrar puntos&lt;br&gt;durante combates" style="edgeLabel;html=1;align=center;verticalAlign=middle;resizable=0;points=[];" parent="qzlctMb44i1yB61l0kc5-12" vertex="1" connectable="0">
          <mxGeometry x="-0.0202" y="-2" relative="1" as="geometry">
            <mxPoint as="offset" />
          </mxGeometry>
        </mxCell>
        <mxCell id="dZJAuWM4ClLpMtlekzl2-3" value="&lt;font style=&quot;font-size: 11px;&quot;&gt;Entrenador&lt;br&gt;&lt;/font&gt;&lt;font style=&quot;font-size: 9px;&quot;&gt;[persona]&lt;/font&gt;" style="shape=actor;whiteSpace=wrap;html=1;fontSize=9;spacingTop=27;" parent="1" vertex="1">
          <mxGeometry x="350" y="282.5" width="70" height="75" as="geometry" />
        </mxCell>
        <mxCell id="dZJAuWM4ClLpMtlekzl2-4" value="&lt;font style=&quot;font-size: 14px;&quot;&gt;Sitio web&lt;/font&gt;&lt;br&gt;&lt;font style=&quot;&quot;&gt;&lt;font style=&quot;font-size: 9px;&quot;&gt;[Sistema de software]&lt;/font&gt;&lt;br&gt;&lt;br&gt;&lt;span style=&quot;font-size: 10px;&quot;&gt;Un sitio web para que entrenadores registren planes y errores observados, los alumnos pueden&amp;nbsp;consultar estos datos&lt;/span&gt;&lt;br&gt;&lt;/font&gt;" style="whiteSpace=wrap;html=1;verticalAlign=top;" parent="1" vertex="1">
          <mxGeometry x="290" y="90" width="190" height="100" as="geometry" />
        </mxCell>
        <mxCell id="qzlctMb44i1yB61l0kc5-10" style="edgeStyle=orthogonalEdgeStyle;rounded=0;orthogonalLoop=1;jettySize=auto;html=1;exitX=0.75;exitY=0;exitDx=0;exitDy=0;entryX=0;entryY=0.75;entryDx=0;entryDy=0;" parent="1" source="qzlctMb44i1yB61l0kc5-6" target="dZJAuWM4ClLpMtlekzl2-4" edge="1">
          <mxGeometry relative="1" as="geometry" />
        </mxCell>
        <mxCell id="qzlctMb44i1yB61l0kc5-11" value="cargar resultados de &lt;br&gt;entrenamiento al sitio web" style="edgeLabel;html=1;align=center;verticalAlign=middle;resizable=0;points=[];" parent="qzlctMb44i1yB61l0kc5-10" vertex="1" connectable="0">
          <mxGeometry x="-0.3766" y="-2" relative="1" as="geometry">
            <mxPoint x="-4" y="20" as="offset" />
          </mxGeometry>
        </mxCell>
        <mxCell id="qzlctMb44i1yB61l0kc5-6" value="&lt;font style=&quot;font-size: 14px;&quot;&gt;Inteligencia artificial&lt;/font&gt;&lt;br&gt;&lt;font style=&quot;&quot;&gt;&lt;font style=&quot;font-size: 9px;&quot;&gt;[Sistema de software]&lt;/font&gt;&lt;br&gt;&lt;br&gt;&lt;span style=&quot;font-size: 10px;&quot;&gt;Inteligencia artificial que analiza un video cargado para analizar posibles problemas.&lt;/span&gt;&lt;br&gt;&lt;/font&gt;" style="whiteSpace=wrap;html=1;verticalAlign=top;" parent="1" vertex="1">
          <mxGeometry x="60" y="270" width="190" height="100" as="geometry" />
        </mxCell>
        <mxCell id="qzlctMb44i1yB61l0kc5-7" value="&lt;font style=&quot;font-size: 14px;&quot;&gt;Aplicaci칩n m칩vil&lt;/font&gt;&lt;br&gt;&lt;font style=&quot;&quot;&gt;&lt;font style=&quot;font-size: 9px;&quot;&gt;[Sistema de software]&lt;/font&gt;&lt;br&gt;&lt;br&gt;&lt;span style=&quot;font-size: 10px;&quot;&gt;App para dispositivos m칩viles que permita registrar&amp;nbsp;puntajes y datos relevantes en de combates&lt;/span&gt;&lt;br&gt;&lt;/font&gt;" style="whiteSpace=wrap;html=1;verticalAlign=top;" parent="1" vertex="1">
          <mxGeometry x="540" y="230" width="190" height="100" as="geometry" />
        </mxCell>
      </root>
    </mxGraphModel>
  </diagram>
</mxfile>
